<?xml version="1.0" encoding="utf-8"?>
<!-- Generator: Adobe Illustrator 16.0.0, SVG Export Plug-In . SVG Version: 6.00 Build 0)  -->
<!DOCTYPE svg PUBLIC "-//W3C//DTD SVG 1.1//EN" "http://www.w3.org/Graphics/SVG/1.1/DTD/svg11.dtd">
<svg version="1.1" id="Layer_1" xmlns="http://www.w3.org/2000/svg" xmlns:xlink="http://www.w3.org/1999/xlink" x="0px" y="0px"
	 width="48px" height="48px" viewBox="0 0 48 48" enable-background="new 0 0 48 48" xml:space="preserve">
<g id="XMLID_18_">
	<g id="XMLID_6599_">
		<path id="fww3972-40-53B-01_6_" fill="#62B136" d="M1.4,18.7h11.1c0-6.3,5.2-11.3,11.6-11.3c6.3,0,11.6,5,11.6,11.3h11.1v21.9H1.4
			V18.7z"/>
		<g id="XMLID_6600_">
			<path id="XMLID_205_" fill="#FFFFFF" d="M19.4,31.3c0,0.9-0.3,1.6-1,2.2c-0.7,0.5-1.6,0.8-2.7,0.8c-1.1,0-2-0.2-2.9-0.6v-2
				c0.7,0.3,1.3,0.5,1.7,0.6c0.5,0.1,0.9,0.2,1.3,0.2c0.5,0,0.8-0.1,1.1-0.3c0.3-0.2,0.4-0.4,0.4-0.8c0-0.2-0.1-0.4-0.2-0.5
				c-0.1-0.2-0.3-0.3-0.5-0.4c-0.2-0.1-0.7-0.4-1.3-0.7c-0.6-0.3-1.1-0.6-1.4-0.8c-0.3-0.3-0.6-0.6-0.7-0.9
				c-0.2-0.4-0.3-0.8-0.3-1.2c0-0.9,0.3-1.6,0.9-2.1c0.6-0.5,1.4-0.8,2.5-0.8c0.5,0,1,0.1,1.5,0.2c0.5,0.1,1,0.3,1.5,0.5l-0.7,1.7
				c-0.5-0.2-1-0.4-1.3-0.5c-0.4-0.1-0.7-0.1-1-0.1c-0.4,0-0.7,0.1-0.9,0.3c-0.2,0.2-0.3,0.4-0.3,0.7c0,0.2,0,0.4,0.1,0.5
				c0.1,0.1,0.2,0.3,0.4,0.4c0.2,0.1,0.6,0.4,1.4,0.7c0.9,0.5,1.6,0.9,1.9,1.4C19.3,30.1,19.4,30.7,19.4,31.3z"/>
			<path id="XMLID_207_" fill="#FFFFFF" d="M25.2,34.1H23v-8.3h-2.7V24h7.6v1.8h-2.7V34.1z"/>
			<path id="XMLID_209_" fill="#FFFFFF" d="M35.7,34.1l-0.7-2.4h-3.7l-0.7,2.4h-2.3L31.8,24h2.6L38,34.1H35.7z M34.4,29.9
				c-0.7-2.2-1.1-3.4-1.1-3.7c-0.1-0.3-0.1-0.5-0.2-0.7c-0.2,0.6-0.6,2-1.3,4.4H34.4z"/>
		</g>
	</g>
</g>
</svg>
