<?xml version="1.0" encoding="utf-8"?>
<!-- Generator: Adobe Illustrator 16.0.0, SVG Export Plug-In . SVG Version: 6.00 Build 0)  -->
<!DOCTYPE svg PUBLIC "-//W3C//DTD SVG 1.1//EN" "http://www.w3.org/Graphics/SVG/1.1/DTD/svg11.dtd">
<svg version="1.1" id="Layer_1" xmlns="http://www.w3.org/2000/svg" xmlns:xlink="http://www.w3.org/1999/xlink" x="0px" y="0px"
	 width="48px" height="48px" viewBox="0 0 48 48" enable-background="new 0 0 48 48" xml:space="preserve">
<g id="XMLID_112_">
	<g id="XMLID_6645_">
		<path id="fww3972-40-53B-01_10_" fill="#62B136" d="M1.4,18.7h11.1c0-6.3,5.2-11.3,11.6-11.3c6.3,0,11.6,5,11.6,11.3h11.1v21.9
			H1.4V18.7z"/>
		<g id="XMLID_6646_">
			<path id="XMLID_212_" fill="#FFFFFF" d="M23.9,30.1c0,1.1-0.4,2-1.2,2.6c-0.8,0.6-1.9,0.9-3.3,0.9c-1.3,0-2.4-0.2-3.4-0.7v-2.4
				c0.8,0.4,1.5,0.6,2.1,0.8c0.6,0.1,1.1,0.2,1.6,0.2c0.6,0,1-0.1,1.3-0.3c0.3-0.2,0.5-0.5,0.5-1c0-0.2-0.1-0.4-0.2-0.6
				c-0.1-0.2-0.3-0.4-0.6-0.5c-0.3-0.2-0.8-0.4-1.6-0.8c-0.7-0.3-1.3-0.7-1.7-1c-0.4-0.3-0.7-0.7-0.9-1.1c-0.2-0.4-0.3-0.9-0.3-1.5
				c0-1.1,0.4-1.9,1.1-2.5c0.7-0.6,1.7-0.9,3-0.9c0.6,0,1.2,0.1,1.8,0.2c0.6,0.1,1.2,0.4,1.8,0.6L23,24c-0.6-0.3-1.2-0.5-1.6-0.6
				c-0.4-0.1-0.8-0.2-1.2-0.2c-0.5,0-0.9,0.1-1.1,0.3c-0.3,0.2-0.4,0.5-0.4,0.9c0,0.2,0.1,0.4,0.2,0.6c0.1,0.2,0.3,0.3,0.5,0.5
				c0.2,0.2,0.8,0.4,1.6,0.9c1.1,0.5,1.9,1.1,2.3,1.6C23.7,28.6,23.9,29.3,23.9,30.1z"/>
			<path id="XMLID_214_" fill="#FFFFFF" d="M34.4,25.1c0,1.3-0.4,2.3-1.2,3c-0.8,0.7-2,1-3.5,1h-1.1v4.3h-2.6V21.3h3.9
				c1.5,0,2.6,0.3,3.4,0.9C34.1,22.9,34.4,23.8,34.4,25.1z M28.6,27h0.8c0.8,0,1.4-0.2,1.8-0.5s0.6-0.8,0.6-1.4c0-0.6-0.2-1-0.5-1.3
				c-0.3-0.3-0.8-0.4-1.5-0.4h-1.2V27z"/>
		</g>
	</g>
</g>
</svg>
