<?xml version="1.0" encoding="utf-8"?>
<!-- Generator: Adobe Illustrator 16.0.0, SVG Export Plug-In . SVG Version: 6.00 Build 0)  -->
<!DOCTYPE svg PUBLIC "-//W3C//DTD SVG 1.1//EN" "http://www.w3.org/Graphics/SVG/1.1/DTD/svg11.dtd">
<svg version="1.1" id="Layer_1" xmlns="http://www.w3.org/2000/svg" xmlns:xlink="http://www.w3.org/1999/xlink" x="0px" y="0px"
	 width="48px" height="48px" viewBox="0 0 48 48" enable-background="new 0 0 48 48" xml:space="preserve">
<g id="XMLID_15_">
	<g id="XMLID_6592_">
		<path id="fww3972-40-53B-01_3_" fill="#FF0000" d="M1.4,18.7h11.1c0-6.3,5.2-11.3,11.6-11.3c6.3,0,11.6,5,11.6,11.3h11.1v21.9H1.4
			V18.7z"/>
		<g id="XMLID_6593_">
			<path id="XMLID_6594_" fill-rule="evenodd" clip-rule="evenodd" fill="#FFFFFF" d="M31,35.2c-4.2,0-8.5,0-12.7,0
				c0-0.1,0-0.1,0-0.1c0-2.9,0-5.8,0-8.8c0,0,0,0,0-0.1c0-0.1,0-0.1,0.1-0.1c0.2,0,0.4,0,0.6,0c0.1,0,0.3,0,0.5,0c0-0.1,0-0.1,0-0.2
				c0-0.6,0-1.3,0-1.9c0-0.3,0-0.7,0.1-1c0.1-0.8,0.5-1.5,1-2.1c0.7-0.9,1.7-1.5,2.9-1.8c0.3-0.1,0.6-0.1,1-0.2c0.2,0,0.4,0,0.7,0
				c0.1,0,0.3,0,0.4,0.1c0.6,0.1,1.2,0.3,1.8,0.6c0.7,0.3,1.2,0.8,1.7,1.4c0.4,0.5,0.7,1,0.8,1.6c0.2,0.5,0.2,1.1,0.2,1.7
				c0,0.6,0,1.1,0,1.7c0,0,0,0.1,0,0.2c0.3,0,0.6,0,0.9,0c0.2,0,0.2,0,0.2,0.2c0,2.9,0,5.8,0,8.7C31,35.1,31,35.2,31,35.2z
				 M27.9,26.2C27.9,26.1,28,26.1,27.9,26.2c0-0.8,0-1.5,0-2.2c0-0.7-0.2-1.2-0.6-1.8c-0.8-1-2.1-1.5-3.5-1.1
				c-1.4,0.3-2.4,1.5-2.4,2.8c0,0.8,0,1.5,0,2.3c0,0,0,0,0,0.1C23.6,26.2,25.8,26.2,27.9,26.2z M23.8,32.7c0.1,0,0.1,0,0.2,0
				c0.5,0,1,0,1.5,0c0.1,0,0.2,0,0.1-0.1c-0.1-0.7-0.2-1.5-0.3-2.2c0-0.1,0-0.1,0.1-0.2c0.2-0.1,0.3-0.3,0.4-0.6
				c0.1-0.4,0-0.9-0.4-1.2c-0.4-0.3-0.8-0.3-1.3-0.2c-0.8,0.4-0.9,1.3-0.2,1.9c0,0,0.1,0.1,0.1,0.1c-0.1,0.5-0.1,1.1-0.2,1.6
				C23.8,32.2,23.8,32.5,23.8,32.7z"/>
		</g>
	</g>
</g>
</svg>
